HIERARCHY
ROOT Pelvis
{
	OFFSET 0.000000 0.941512 0.000000
	CHANNELS 6 Xposition Yposition Zposition Zrotation Yrotation Xrotation 
	JOINT Pelvis_L_Hip
	{
		OFFSET 0.000000 0.000000 0.000000
		CHANNELS 3 Zrotation Yrotation Xrotation
		JOINT L_Hip
		{
			OFFSET 0.062321 -0.080322 -0.016990
			CHANNELS 3 Zrotation Yrotation Xrotation
			JOINT L_Knee
			{
				OFFSET 0.093051 -0.381305 -0.029784
				CHANNELS 3 Zrotation Yrotation Xrotation
				JOINT L_Ankle
				{
					OFFSET -0.010371 -0.431000 -0.033614
					CHANNELS 3 Zrotation Yrotation Xrotation
					End Site #name: L_Foot
					{
						OFFSET 0.069299 -0.038670 0.119418
					}
				}
			}
		}
	}
	JOINT Pelvis_R_Hip
	{
		OFFSET 0.000000 0.000000 0.000000
		CHANNELS 3 Zrotation Yrotation Xrotation
		JOINT R_Hip
		{
			OFFSET -0.055334 -0.094904 -0.002373
			CHANNELS 3 Zrotation Yrotation Xrotation
			JOINT R_Knee
			{
				OFFSET -0.064207 -0.384370 -0.019592
				CHANNELS 3 Zrotation Yrotation Xrotation
				JOINT R_Ankle
				{
					OFFSET 0.025418 -0.419734 -0.065953
					CHANNELS 3 Zrotation Yrotation Xrotation
					End Site #name: R_Foot
					{
						OFFSET -0.057233 -0.039888 0.132134
					}
				}
			}
		}
	}
	JOINT Pelvis_Spine1
	{
		OFFSET 0.000000 0.000000 0.000000
		CHANNELS 3 Zrotation Yrotation Xrotation
		JOINT Spine1
		{
			OFFSET -0.005562 0.124093 -0.043360
			CHANNELS 3 Zrotation Yrotation Xrotation
			JOINT Spine2
			{
				OFFSET 0.012244 0.139499 0.029894
				CHANNELS 3 Zrotation Yrotation Xrotation
				JOINT Spine3
				{
					OFFSET -0.002556 0.056561 0.009225
					CHANNELS 3 Zrotation Yrotation Xrotation
					JOINT Spine3_Neck
					{
						OFFSET 0.000000 0.000000 0.000000
						CHANNELS 3 Zrotation Yrotation Xrotation
						JOINT Neck
						{
							OFFSET -0.005205 0.217920 -0.024551
							CHANNELS 3 Zrotation Yrotation Xrotation
							End Site #name: Head
							{
								OFFSET 0.002365 0.091850 0.046637
							}
						}
					}
					JOINT Spine3_L_Collar
					{
						OFFSET 0.000000 0.000000 0.000000
						CHANNELS 3 Zrotation Yrotation Xrotation
						JOINT L_Collar
						{
							OFFSET 0.072225 0.116603 -0.009480
							CHANNELS 3 Zrotation Yrotation Xrotation
							JOINT L_Shoulder
							{
								OFFSET 0.115937 -0.058643 -0.021018
								CHANNELS 3 Zrotation Yrotation Xrotation
								JOINT L_Elbow
								{
									OFFSET 0.021994 -0.254722 -0.024492
									CHANNELS 3 Zrotation Yrotation Xrotation
									End Site #name: L_Wrist
									{
										OFFSET 0.048810 -0.240214 0.103329
									}
								}
							}
						}
					}
					JOINT Spine3_R_Collar
					{
						OFFSET 0.000000 0.000000 0.000000
						CHANNELS 3 Zrotation Yrotation Xrotation
						JOINT R_Collar
						{
							OFFSET -0.073372 0.120704 -0.024611
							CHANNELS 3 Zrotation Yrotation Xrotation
							JOINT R_Shoulder
							{
								OFFSET -0.108089 -0.054969 -0.020504
								CHANNELS 3 Zrotation Yrotation Xrotation
								JOINT R_Elbow
								{
									OFFSET -0.033684 -0.260739 0.009889
									CHANNELS 3 Zrotation Yrotation Xrotation
									End Site #name: R_Wrist
									{
										OFFSET -0.067980 -0.232763 0.118463
									}
								}
							}
						}
					}
				}
			}
		}
	}
}
MOTION
Frames: 8
Frame Time: 0.041667
0.023452 0.931355 1.260686 0.718516 2.045503 2.595932 0.000000 0.000000 0.000000 -9.121203 -6.981101 -23.370667 -1.085435 -0.520969 30.378820 3.223398 -6.736086 -8.614074 0.000000 0.000000 0.000000 4.857309 -1.169785 4.231498 -4.925517 5.748483 45.220744 7.955335 12.579948 8.125288 0.000000 0.000000 0.000000 -0.227385 -0.330342 4.211442 0.672305 -0.241784 -3.285376 2.896169 5.778666 8.475608 0.000000 0.000000 0.000000 -0.002104 -0.056378 1.333490 0.000000 0.000000 0.000000 18.826815 3.680810 7.334815 -18.500523 3.909503 7.497235 -10.758949 -34.448994 -63.273605 0.000000 0.000000 0.000000 -27.619698 8.041082 -2.171833 22.234969 -3.228604 11.474290 2.477303 34.797913 -65.217676 
0.019215 0.902844 1.341131 2.121989 2.506829 0.229018 0.000000 0.000000 0.000000 -10.871045 -5.914388 -19.400746 -2.613512 -0.122820 38.219144 7.419428 -5.366140 -15.098965 0.000000 0.000000 0.000000 2.131886 0.927249 -5.565538 -1.238504 4.788408 61.489918 4.570188 8.769331 4.013299 0.000000 0.000000 0.000000 -1.894937 -0.222360 8.230146 0.416925 -0.246541 -4.182775 1.574001 3.527139 8.575590 0.000000 0.000000 0.000000 0.922714 -0.390473 -1.679689 0.000000 0.000000 0.000000 16.976185 -1.227015 3.100225 -17.133551 2.320424 2.004957 -7.126913 -30.665387 -65.342371 0.000000 0.000000 0.000000 -24.759278 5.811096 -0.226336 22.770599 -3.198029 11.151957 2.124733 33.829569 -64.830391 
0.013805 0.895994 1.421823 1.628270 2.265209 -0.506509 0.000000 0.000000 0.000000 -11.023107 -3.432359 -12.313979 -1.471102 -0.571360 36.996712 9.377995 -5.595985 -18.560051 0.000000 0.000000 0.000000 1.460531 3.146789 -18.135502 0.764425 3.817072 69.586330 2.156526 6.499558 0.501617 0.000000 0.000000 0.000000 -0.953992 -0.597754 9.444612 -0.119918 -0.174851 -4.122794 0.779620 1.354140 8.430273 0.000000 0.000000 0.000000 0.751828 -0.326279 -1.529297 0.000000 0.000000 0.000000 17.825110 -5.703689 -0.197988 -16.768173 1.034312 -3.337103 -4.079751 -29.631061 -70.582303 0.000000 0.000000 0.000000 -24.340118 3.228956 2.195184 23.260680 -4.078200 13.612025 1.215857 33.994577 -66.716052 
0.007299 0.911041 1.508467 -0.858394 2.018031 -0.302878 0.000000 0.000000 0.000000 -9.179286 -0.331919 -3.237967 1.888821 -1.579020 30.084466 7.742766 -8.053646 -16.583226 0.000000 0.000000 0.000000 3.000615 5.280519 -28.298856 1.141484 3.224916 65.856912 0.733730 4.542290 -1.324674 0.000000 0.000000 0.000000 2.056896 -1.407126 8.535911 -0.080033 -0.168938 -3.894143 0.543205 -0.576281 8.012848 0.000000 0.000000 0.000000 0.086822 -0.038419 -0.221124 0.000000 0.000000 0.000000 20.518488 -8.829404 -2.419599 -17.880058 0.307725 -6.761158 -2.366015 -31.157637 -76.547468 0.000000 0.000000 0.000000 -25.922097 0.626294 4.979315 22.138638 -5.273885 17.575147 1.061525 35.573350 -68.735696 
-0.000256 0.942020 1.602318 -3.310077 1.633657 0.527824 0.000000 0.000000 0.000000 -5.087195 1.890313 5.094811 2.877032 -1.417521 22.235835 -0.016593 -12.453953 -5.772487 0.000000 0.000000 0.000000 4.864174 6.651037 -32.806392 -0.346242 3.353325 50.654296 1.989807 5.059428 1.053022 0.000000 0.000000 0.000000 4.960320 -1.876348 5.716165 0.300522 -0.161425 -2.600408 0.425458 -2.258218 6.705721 0.000000 0.000000 0.000000 -0.776816 0.374341 2.283445 0.000000 0.000000 0.000000 22.552638 -10.601077 -3.898526 -18.214457 0.216840 -7.118474 -3.115937 -34.652096 -79.052658 0.000000 0.000000 0.000000 -26.897861 -1.645087 7.455764 19.927209 -6.116649 21.312181 1.654531 36.444981 -68.523293 
-0.004752 0.973960 1.702866 -3.950318 1.214929 1.885062 0.000000 0.000000 0.000000 -2.688981 3.039707 10.509571 3.309249 -1.185688 16.742065 -11.333468 -12.947119 10.778527 0.000000 0.000000 0.000000 6.140176 6.703068 -31.514653 -4.055575 3.431518 28.214300 8.340528 9.326120 10.966015 0.000000 0.000000 0.000000 6.390004 -1.527437 0.810609 0.442514 -0.093608 -0.507730 -0.016194 -3.769758 5.108217 0.000000 0.000000 0.000000 -1.345540 0.700783 6.990959 0.000000 0.000000 0.000000 23.596247 -11.180236 -4.575295 -18.675542 0.690966 -5.171098 -7.159177 -39.156955 -75.808826 0.000000 0.000000 0.000000 -27.811350 -3.862622 9.941738 19.055835 -6.607424 23.483116 3.482574 36.358331 -65.029723 
-0.007884 0.987510 1.805479 -3.530948 0.528256 3.311307 0.000000 0.000000 0.000000 -3.165563 3.354649 11.252998 4.791791 -1.653197 18.818023 -13.123053 -7.989666 16.051407 0.000000 0.000000 0.000000 6.985639 6.341471 -29.006235 -5.836049 2.236902 11.501831 12.004236 6.831229 19.570320 0.000000 0.000000 0.000000 6.532545 -0.794673 -4.382111 0.363216 -0.034534 0.589526 -0.120169 -4.598045 4.715181 0.000000 0.000000 0.000000 -1.543935 0.909031 11.048901 0.000000 0.000000 0.000000 24.463235 -10.635577 -4.293127 -20.549752 1.374600 -3.045330 -13.527161 -42.565372 -68.086074 0.000000 0.000000 0.000000 -29.092201 -5.428093 12.004894 19.114384 -6.773835 23.942589 5.699965 35.877597 -60.542323 
-0.013376 0.974240 1.904622 -2.958030 -0.556510 2.704000 0.000000 0.000000 0.000000 -3.764455 3.137661 10.027901 4.439084 -2.134285 27.921279 -6.573006 -1.171810 10.285625 0.000000 0.000000 0.000000 7.523366 5.965659 -26.764755 -4.344454 1.783892 10.794937 9.470887 2.150704 18.473775 0.000000 0.000000 0.000000 6.382927 -0.612470 -5.437165 0.187980 -0.021344 0.213051 0.010567 -4.343880 5.255839 0.000000 0.000000 0.000000 -1.891634 1.166003 11.028919 0.000000 0.000000 0.000000 23.988101 -9.598078 -3.547869 -21.544585 2.022248 -1.125277 -17.706237 -43.036624 -61.791967 0.000000 0.000000 0.000000 -28.706320 -5.355490 11.921015 18.655228 -6.636235 23.725740 5.432798 33.988689 -58.884912 
